<?xml version="1.0" encoding="utf-8"?>
<!-- Generator: Adobe Illustrator 24.2.3, SVG Export Plug-In . SVG Version: 6.00 Build 0)  -->
<svg version="1.1" id="Layer_1" focusable="false" xmlns="http://www.w3.org/2000/svg" xmlns:xlink="http://www.w3.org/1999/xlink"
	 x="0px" y="0px" viewBox="0 0 448 512" style="enable-background:new 0 0 448 512;" xml:space="preserve">
<style type="text/css">
	.st0{fill:#F6F6F6;stroke:#000000;stroke-width:8;stroke-miterlimit:10;}
</style>
<path class="st0" d="M103.8,455H13.2V155.9h90.6V455z M58.5,115.1C29.5,115.1,6,90.5,6,60.8C6,31.1,29.5,7,58.5,7
	c29,0,52.5,24.1,52.5,53.8C110.9,90.5,87.4,115.1,58.5,115.1z M442.9,455h-90.4V309.4c0-34.7-0.7-79.2-47.1-79.2
	c-47.1,0-54.3,37.7-54.3,76.7V455h-90.5V155.9h86.9v40.8h1.3c12.1-23.5,41.6-48.3,85.7-48.3c91.7,0,108.5,61.9,108.5,142.3
	L440.1,455H442.9z"/>
</svg>
