<?xml version="1.0" encoding="utf-8"?>
<!-- Generator: Adobe Illustrator 24.2.3, SVG Export Plug-In . SVG Version: 6.00 Build 0)  -->
<svg version="1.1" id="Layer_1" focusable="false" xmlns="http://www.w3.org/2000/svg" xmlns:xlink="http://www.w3.org/1999/xlink"
	 x="0px" y="0px" viewBox="0 0 512 512" style="enable-background:new 0 0 512 512;" xml:space="preserve">
<style type="text/css">
	.st0{fill:#F6F6F6;stroke:#000000;stroke-width:8;stroke-miterlimit:10;}
</style>
<path class="st0" d="M447.7,157.7c0.3,4.3,0.3,8.6,0.3,12.9C448,301.3,348.5,452,166.6,452c-56,0-108.1-16.2-151.9-44.4
	c8,0.9,15.6,1.2,23.9,1.2c46.2,0,88.8-15.6,122.8-42.3c-43.5-0.9-79.9-29.4-92.5-68.6c6.1,0.9,12.2,1.5,18.7,1.5
	c8.9,0,17.8-1.2,26-3.4c-45.3-9.2-79.3-49-79.3-97.1v-1.2c13.2,7.3,28.5,11.9,44.7,12.6c-26.6-17.8-44.1-48.1-44.1-82.4
	c0-18.4,4.9-35.2,13.5-49.9c48.7,60,121.9,99.2,203.9,103.5c-1.5-7.3-2.4-15-2.4-22.7c0-54.5,44.1-98.9,98.9-98.9
	C377.2,60,403,72,421,91.3c22.4-4.3,43.8-12.6,62.8-23.9c-7.3,23-23,42.3-43.5,54.5c19.9-2.1,39.2-7.7,57-15.3
	C483.8,126.2,467,143.6,447.7,157.7L447.7,157.7z"/>
</svg>
